<?xml version="1.0" encoding="UTF-8" standalone="no"?>
<!DOCTYPE svg PUBLIC "-//W3C//DTD SVG 1.1//EN" "http://www.w3.org/Graphics/SVG/1.1/DTD/svg11.dtd">
<svg xmlns="http://www.w3.org/2000/svg" version="1.1" viewBox="0 0 596 108">
<g stroke-width="2.0" fill="none" stroke-linecap="butt">
<path stroke="#b6b5b2" vector-effect="non-scaling-stroke" d="
  M 406.46 22.25
  Q 403.56 22.98 401.53 21.27
  Q 399.09 19.23 398.73 19.06
  Q 393.95 16.65 387.25 16.25
  Q 366.44 15.00 354.00 15.50
  Q 348.33 15.73 347.25 21.29"
/>
<path stroke="#b6b5b2" vector-effect="non-scaling-stroke" d="
  M 341.96 87.75
  Q 342.80 87.06 343.50 88.51
  Q 343.99 89.54 344.51 88.53
  Q 346.12 85.41 346.11 82.19
  Q 346.11 78.87 346.11 78.80
  Q 346.73 69.31 347.24 59.81
  Q 347.68 51.69 356.00 51.75
  Q 370.29 51.86 374.00 52.07
  Q 379.91 52.41 385.40 50.68
  Q 389.55 49.37 391.14 46.94
  Q 393.25 43.75 391.69 39.31
  C 391.40 38.48 390.45 38.14 389.94 38.69
  Q 389.56 39.09 389.00 38.71"
/>
<path stroke="#b0b0ac" vector-effect="non-scaling-stroke" d="
  M 328.00 17.46
  Q 325.49 18.02 322.93 18.34
  Q 321.03 18.58 320.19 19.09
  Q 318.81 19.93 318.30 21.43
  Q 318.21 21.69 317.56 25.05
  Q 317.21 26.88 317.21 28.75
  Q 317.25 56.75 317.25 84.75
  Q 317.25 86.71 316.45 89.58
  C 316.35 89.94 316.17 90.23 315.94 90.41
  L 307.43 96.98
  C 307.25 97.12 306.91 97.19 306.51 97.18
  L 300.75 97.04"
/>
<path stroke="#b0b0ac" vector-effect="non-scaling-stroke" d="
  M 331.00 83.54
  Q 332.48 89.41 338.00 90.75
  Q 339.66 91.15 339.39 89.94
  C 339.33 89.66 339.43 89.38 339.64 89.25
  L 340.04 89.00"
/>
<path stroke="#babbb6" vector-effect="non-scaling-stroke" d="
  M 529.50 73.29
  Q 528.19 76.39 530.27 77.63
  Q 531.68 78.48 533.83 78.00
  Q 538.35 76.99 540.25 72.25
  Q 541.71 68.59 543.99 64.58
  Q 547.21 58.92 548.12 57.13
  Q 554.89 43.75 561.51 30.30
  Q 565.54 22.12 566.19 21.33
  Q 569.86 16.89 576.63 17.64
  Q 576.69 17.64 578.31 18.07
  Q 579.53 18.40 580.71 17.75"
/>
<path stroke="#acaca9" vector-effect="non-scaling-stroke" d="
  M 580.79 21.25
  Q 580.59 23.49 578.50 22.75
  Q 573.97 21.15 570.66 23.05
  Q 568.56 24.25 566.25 28.64
  Q 549.77 60.02 541.81 77.06
  Q 538.73 83.67 532.05 83.23
  C 531.74 83.21 531.43 83.09 531.17 82.89
  Q 523.41 76.83 520.57 67.30
  Q 518.94 61.79 517.19 58.56
  Q 515.41 55.28 514.52 52.26
  Q 513.69 49.45 512.56 47.72
  Q 507.62 40.12 506.19 37.06
  Q 504.01 32.40 503.75 27.24
  C 503.72 26.58 503.48 25.94 503.06 25.43
  Q 499.68 21.28 495.32 18.27
  Q 493.45 16.99 491.20 16.98
  Q 488.23 16.97 485.56 17.47
  Q 482.62 18.02 482.25 20.98
  Q 480.88 31.95 480.99 43.00
  Q 481.04 47.68 480.69 52.35
  Q 480.29 57.86 480.49 61.66
  Q 480.93 69.83 481.50 78.00
  Q 481.90 83.71 480.55 96.53
  Q 480.49 97.09 480.18 97.34
  Q 479.80 97.64 479.25 97.71"
/>
<path stroke="#b6b5b2" vector-effect="non-scaling-stroke" d="
  M 206.29 13.25
  Q 206.23 13.80 205.50 13.75
  Q 190.85 12.77 174.88 15.04
  Q 173.09 15.30 171.35 15.97
  Q 169.62 16.63 167.90 17.30
  Q 165.44 18.26 163.09 19.97
  Q 159.95 22.26 158.19 23.19
  Q 150.22 27.38 145.64 35.16
  Q 142.54 40.44 140.40 46.17
  Q 138.57 51.03 135.94 55.51
  C 135.76 55.82 135.50 56.03 135.22 56.10
  Q 134.11 56.36 133.21 55.50"
/>
<path stroke="#b4b4b0" vector-effect="non-scaling-stroke" d="
  M 154.75 69.21
  Q 153.46 70.74 154.62 72.40
  Q 157.04 75.85 160.53 78.20
  Q 165.26 81.38 170.06 84.44
  Q 175.36 87.81 183.00 88.55
  Q 186.00 88.84 190.48 89.12
  Q 194.23 89.36 198.00 89.05
  Q 200.24 88.86 202.42 89.26
  Q 202.64 89.30 204.41 90.11
  Q 205.77 90.74 206.79 89.25"
/>
<path stroke="#bcbcb8" vector-effect="non-scaling-stroke" d="
  M 293.54 13.50
  Q 293.70 14.50 292.81 14.19
  Q 283.38 10.82 277.72 19.02
  C 277.51 19.32 277.21 19.48 276.93 19.46
  Q 276.04 19.37 275.96 18.25"
/>
<path stroke="#acaca9" vector-effect="non-scaling-stroke" d="
  M 293.21 17.75
  Q 286.68 15.61 283.78 19.92
  Q 282.29 22.13 282.15 27.40
  Q 281.71 43.91 281.10 60.41
  Q 280.92 65.47 280.74 66.07
  Q 279.77 69.29 275.48 69.75
  Q 273.48 69.97 273.21 67.98
  Q 272.96 66.14 271.41 65.05
  Q 270.31 64.28 270.27 64.25
  Q 267.94 62.28 266.43 59.68
  Q 264.00 55.47 263.44 54.76
  Q 260.01 50.41 253.81 43.44
  Q 253.36 42.93 252.02 40.71
  Q 251.17 39.30 249.99 38.22
  Q 244.00 32.72 243.06 31.19
  Q 240.80 27.48 236.41 25.30
  Q 234.98 24.59 233.97 23.35
  Q 231.80 20.70 228.81 20.35
  Q 225.75 20.00 223.51 21.80
  Q 221.29 23.57 221.40 26.88
  Q 221.47 29.06 221.47 29.13
  Q 221.42 32.45 221.64 35.77
  Q 221.89 39.36 221.72 42.37
  Q 221.24 51.43 221.76 60.49
  Q 221.93 63.40 221.71 67.50
  Q 221.52 71.02 221.75 74.54"
/>
<path stroke="#bcbcb8" vector-effect="non-scaling-stroke" d="
  M 244.50 24.96
  Q 243.87 25.71 243.00 25.92
  C 242.71 25.99 242.38 25.90 242.12 25.67
  Q 237.45 21.62 236.19 19.31
  Q 234.44 16.12 232.44 15.56
  Q 226.86 14.01 220.19 16.07
  Q 218.45 16.61 216.43 18.37
  Q 214.52 20.03 212.29 21.25"
/>
<path stroke="#bcbcb8" vector-effect="non-scaling-stroke" d="
  M 459.71 14.50
  Q 443.37 14.19 427.02 14.24
  Q 423.97 14.25 422.54 14.74
  Q 420.11 15.57 418.81 17.56
  Q 416.75 20.74 414.44 23.76
  Q 414.19 24.08 413.96 24.11
  Q 413.53 24.18 413.71 23.25"
/>
<path stroke="#adadaa" vector-effect="non-scaling-stroke" d="
  M 431.75 21.04
  Q 427.33 19.88 424.80 22.40
  Q 423.03 24.17 422.78 28.23
  Q 422.51 32.62 422.91 37.01
  Q 423.21 40.36 422.50 45.75
  Q 421.99 49.68 422.44 54.61
  Q 422.93 59.99 422.96 63.43
  Q 422.99 68.64 423.44 73.83
  Q 423.93 79.37 423.80 84.20
  Q 423.62 90.86 423.94 95.81
  Q 424.00 96.80 423.50 97.21"
/>
<path stroke="#b0b0ac" vector-effect="non-scaling-stroke" d="
  M 432.00 42.96
  Q 431.52 43.56 432.03 44.03
  C 432.29 44.27 432.45 44.55 432.47 44.80
  Q 432.80 49.82 434.75 55.00
  Q 435.29 56.43 435.04 58.25"
/>
<path stroke="#b5b4b1" vector-effect="non-scaling-stroke" d="
  M 435.75 81.54
  L 436.15 82.40
  C 436.32 82.75 436.40 83.07 436.37 83.30
  Q 435.97 86.89 439.56 87.44
  Q 444.42 88.18 458.01 88.97
  C 458.19 88.98 458.49 89.13 458.84 89.37
  Q 459.19 89.63 459.71 89.50"
/>
<path stroke="#b2b1ad" vector-effect="non-scaling-stroke" d="
  M 116.71 18.00
  Q 104.43 17.68 92.16 18.31
  Q 90.82 18.38 87.48 18.10
  Q 84.86 17.89 82.75 18.50
  Q 77.71 19.97 76.56 24.37
  Q 76.07 26.25 76.79 32.12
  Q 77.93 41.48 77.75 51.75
  Q 77.40 72.23 77.77 99.50
  Q 77.77 99.90 77.50 100.21"
/>
<path stroke="#adadaa" vector-effect="non-scaling-stroke" d="
  M 92.21 44.25
  Q 92.22 45.05 92.78 45.53
  C 93.04 45.76 93.20 46.04 93.23 46.31
  Q 93.66 50.72 96.48 54.06
  C 96.69 54.31 96.98 54.48 97.30 54.55
  Q 105.23 56.32 109.00 56.00
  Q 120.27 55.06 130.50 56.00
  Q 130.87 56.03 130.79 56.50"
/>
<path stroke="#b0b0ac" vector-effect="non-scaling-stroke" d="
  M 91.25 82.96
  Q 92.01 83.49 91.51 83.85
  C 91.21 84.07 91.01 84.33 90.98 84.56
  Q 90.62 87.09 91.42 89.41
  Q 92.14 91.52 94.35 93.00
  Q 100.93 97.40 109.26 95.82
  Q 110.13 95.66 110.95 95.79
  Q 111.91 95.95 112.58 95.95
  Q 116.22 95.91 116.00 99.71"
/>
<path stroke="#bcbcb8" vector-effect="non-scaling-stroke" d="
  M 95.25 44.29
  Q 94.61 46.59 95.94 48.31
  Q 97.56 50.43 100.07 51.50
  Q 101.79 52.24 105.05 52.35
  Q 116.90 52.78 128.75 52.27
  C 129.04 52.26 129.33 52.11 129.56 51.86
  Q 130.66 50.67 131.71 52.00"
/>
<path stroke="#b3b3af" vector-effect="non-scaling-stroke" d="
  M 45.79 50.75
  Q 43.62 51.24 42.75 51.25
  Q 33.88 51.37 33.81 60.25
  Q 33.64 79.53 33.94 98.81
  Q 33.94 99.12 34.50 99.71"
/>
</g>
<path fill="#c4c3bf" d="
  M 406.46 22.25
  Q 403.56 22.98 401.53 21.27
  Q 399.09 19.23 398.73 19.06
  Q 393.95 16.65 387.25 16.25
  Q 366.44 15.00 354.00 15.50
  Q 348.33 15.73 347.25 21.29
  L 343.69 21.51
  Q 341.52 21.65 341.58 19.71
  L 341.98 6.13
  Q 342.05 3.82 344.34 3.77
  Q 350.00 3.66 355.16 3.87
  Q 361.72 4.14 365.97 4.15
  Q 375.08 4.18 384.17 4.83
  Q 390.38 5.28 394.01 7.04
  Q 403.27 11.55 406.46 22.25
  Z"
/>
<path fill="#babbb5" d="
  M 328.00 17.46
  Q 325.49 18.02 322.93 18.34
  Q 321.03 18.58 320.19 19.09
  Q 318.81 19.93 318.30 21.43
  Q 318.21 21.69 317.56 25.05
  Q 317.21 26.88 317.21 28.75
  Q 317.25 56.75 317.25 84.75
  Q 317.25 86.71 316.45 89.58
  C 316.35 89.94 316.17 90.23 315.94 90.41
  L 307.43 96.98
  C 307.25 97.12 306.91 97.19 306.51 97.18
  L 300.75 97.04
  Q 300.25 96.65 300.25 95.25
  Q 300.25 90.25 300.25 84.98
  C 300.25 84.47 300.69 84.04 301.26 84.01
  L 309.89 83.52
  C 310.37 83.49 310.75 83.05 310.75 82.51
  Q 310.75 51.81 310.75 21.83
  Q 310.75 21.59 310.34 19.24
  Q 310.18 18.30 310.43 17.36
  Q 310.74 16.22 310.73 15.58
  Q 310.60 10.19 310.97 5.11
  C 311.00 4.69 311.33 4.36 311.74 4.32
  Q 319.71 3.56 326.94 4.50
  C 327.23 4.53 327.45 4.77 327.46 5.06
  L 328.00 17.46
  Z"
/>
<path fill="#b4b4b1" d="
  M 529.50 73.29
  Q 528.19 76.39 530.27 77.63
  Q 531.68 78.48 533.83 78.00
  Q 538.35 76.99 540.25 72.25
  Q 541.71 68.59 543.99 64.58
  Q 547.21 58.92 548.12 57.13
  Q 554.89 43.75 561.51 30.30
  Q 565.54 22.12 566.19 21.33
  Q 569.86 16.89 576.63 17.64
  Q 576.69 17.64 578.31 18.07
  Q 579.53 18.40 580.71 17.75
  Q 581.15 19.47 580.79 21.25
  Q 580.59 23.49 578.50 22.75
  Q 573.97 21.15 570.66 23.05
  Q 568.56 24.25 566.25 28.64
  Q 549.77 60.02 541.81 77.06
  Q 538.73 83.67 532.05 83.23
  C 531.74 83.21 531.43 83.09 531.17 82.89
  Q 523.41 76.83 520.57 67.30
  Q 518.94 61.79 517.19 58.56
  Q 515.41 55.28 514.52 52.26
  Q 513.69 49.45 512.56 47.72
  Q 507.62 40.12 506.19 37.06
  Q 504.01 32.40 503.75 27.24
  C 503.72 26.58 503.48 25.94 503.06 25.43
  Q 499.68 21.28 495.32 18.27
  Q 493.45 16.99 491.20 16.98
  Q 488.23 16.97 485.56 17.47
  Q 482.62 18.02 482.25 20.98
  Q 480.88 31.95 480.99 43.00
  Q 481.04 47.68 480.69 52.35
  Q 480.29 57.86 480.49 61.66
  Q 480.93 69.83 481.50 78.00
  Q 481.90 83.71 480.55 96.53
  Q 480.49 97.09 480.18 97.34
  Q 479.80 97.64 479.25 97.71
  Q 476.53 98.40 476.06 95.94
  Q 475.57 93.31 475.73 90.14
  Q 475.98 85.29 475.97 84.35
  Q 475.59 45.64 475.75 6.10
  C 475.76 5.22 476.45 4.51 477.32 4.48
  L 491.96 4.00
  Q 493.85 3.94 494.72 5.64
  L 529.50 73.29
  Z"
/>
<path fill="#c0c1bb" d="
  M 580.71 17.75
  Q 579.53 18.40 578.31 18.07
  Q 576.69 17.64 576.63 17.64
  Q 569.86 16.89 566.19 21.33
  Q 565.54 22.12 561.51 30.30
  Q 554.89 43.75 548.12 57.13
  Q 547.21 58.92 543.99 64.58
  Q 541.71 68.59 540.25 72.25
  Q 538.35 76.99 533.83 78.00
  Q 531.68 78.48 530.27 77.63
  Q 528.19 76.39 529.50 73.29
  Q 530.11 73.36 530.44 72.69
  Q 546.97 38.67 563.06 5.09
  C 563.35 4.49 563.96 4.12 564.62 4.14
  L 578.64 4.50
  Q 580.46 4.54 580.50 6.38
  L 580.71 17.75
  Z"
/>
<path fill="#c4c3bf" d="
  M 206.29 13.25
  Q 206.23 13.80 205.50 13.75
  Q 190.85 12.77 174.88 15.04
  Q 173.09 15.30 171.35 15.97
  Q 169.62 16.63 167.90 17.30
  Q 165.44 18.26 163.09 19.97
  Q 159.95 22.26 158.19 23.19
  Q 150.22 27.38 145.64 35.16
  Q 142.54 40.44 140.40 46.17
  Q 138.57 51.03 135.94 55.51
  C 135.76 55.82 135.50 56.03 135.22 56.10
  Q 134.11 56.36 133.21 55.50
  Q 132.46 43.42 137.25 30.50
  Q 141.20 19.84 149.56 14.06
  Q 156.03 9.60 164.19 7.11
  Q 170.43 5.21 180.01 4.61
  Q 192.72 3.81 205.34 4.43
  C 205.81 4.45 206.18 4.83 206.19 5.30
  L 206.29 13.25
  Z"
/>
<path fill="#c4c3bf" d="
  M 293.54 13.50
  Q 293.70 14.50 292.81 14.19
  Q 283.38 10.82 277.72 19.02
  C 277.51 19.32 277.21 19.48 276.93 19.46
  Q 276.04 19.37 275.96 18.25
  L 276.21 5.50
  C 276.22 4.94 276.63 4.49 277.14 4.48
  L 291.82 4.28
  C 292.29 4.27 292.69 4.69 292.75 5.23
  L 293.54 13.50
  Z"
/>
<path fill="#c4c3bf" d="
  M 459.71 14.50
  Q 443.37 14.19 427.02 14.24
  Q 423.97 14.25 422.54 14.74
  Q 420.11 15.57 418.81 17.56
  Q 416.75 20.74 414.44 23.76
  Q 414.19 24.08 413.96 24.11
  Q 413.53 24.18 413.71 23.25
  Q 414.31 21.94 414.30 20.50
  Q 414.25 13.50 414.25 5.72
  C 414.25 4.91 414.92 4.25 415.74 4.26
  L 458.00 4.49
  C 458.95 4.50 459.71 5.23 459.71 6.14
  L 459.71 14.50
  Z"
/>
<path fill="#c4c3bf" d="
  M 244.50 24.96
  Q 243.87 25.71 243.00 25.92
  C 242.71 25.99 242.38 25.90 242.12 25.67
  Q 237.45 21.62 236.19 19.31
  Q 234.44 16.12 232.44 15.56
  Q 226.86 14.01 220.19 16.07
  Q 218.45 16.61 216.43 18.37
  Q 214.52 20.03 212.29 21.25
  L 212.25 5.25
  C 212.25 4.86 212.57 4.54 212.95 4.56
  L 228.90 5.28
  C 229.41 5.31 229.90 5.59 230.25 6.05
  L 244.50 24.96
  Z"
/>
<path fill="#bdbdb8" d="
  M 116.71 18.00
  Q 104.43 17.68 92.16 18.31
  Q 90.82 18.38 87.48 18.10
  Q 84.86 17.89 82.75 18.50
  Q 77.71 19.97 76.56 24.37
  Q 76.07 26.25 76.79 32.12
  Q 77.93 41.48 77.75 51.75
  Q 77.40 72.23 77.77 99.50
  Q 77.77 99.90 77.50 100.21
  L 71.80 100.19
  C 70.98 100.18 70.32 99.49 70.31 98.63
  L 69.94 20.33
  Q 69.94 20.16 69.76 19.84
  Q 69.67 19.70 69.69 19.56
  Q 70.28 12.89 70.43 6.19
  C 70.44 5.91 70.65 5.68 70.93 5.66
  Q 80.84 5.11 90.75 5.17
  Q 96.19 5.20 101.73 4.99
  Q 107.23 4.77 112.72 4.75
  Q 112.81 4.75 114.28 4.65
  Q 117.42 4.43 116.84 8.01
  Q 116.56 9.72 117.46 11.10
  C 117.61 11.34 117.67 11.65 117.62 11.97
  L 116.71 18.00
  Z"
/>
<rect fill="#c4c3bf" x="6.26" y="6.24" width="58.98" height="13.52" rx="1.55"/>
<path fill="#a8a7a4" d="
  M 206.29 13.25
  L 206.74 38.15
  Q 206.79 41.31 203.77 41.25
  L 190.58 40.97
  C 190.00 40.96 189.53 40.47 189.51 39.85
  L 188.98 21.95
  C 188.97 21.52 188.66 21.17 188.24 21.09
  Q 178.79 19.37 170.02 21.84
  Q 155.88 25.82 152.31 40.06
  Q 148.66 54.62 154.75 69.21
  Q 153.46 70.74 154.62 72.40
  Q 157.04 75.85 160.53 78.20
  Q 165.26 81.38 170.06 84.44
  Q 175.36 87.81 183.00 88.55
  Q 186.00 88.84 190.48 89.12
  Q 194.23 89.36 198.00 89.05
  Q 200.24 88.86 202.42 89.26
  Q 202.64 89.30 204.41 90.11
  Q 205.77 90.74 206.79 89.25
  Q 207.59 90.26 207.28 90.58
  C 206.61 91.26 206.31 92.21 206.46 93.15
  Q 207.14 97.45 204.74 97.51
  Q 195.37 97.75 181.25 97.00
  Q 171.33 96.47 162.97 94.20
  Q 137.56 87.31 133.56 61.69
  Q 133.36 60.42 133.06 59.61
  Q 132.44 57.95 132.44 57.64
  Q 132.46 56.47 133.21 55.50
  Q 134.11 56.36 135.22 56.10
  C 135.50 56.03 135.76 55.82 135.94 55.51
  Q 138.57 51.03 140.40 46.17
  Q 142.54 40.44 145.64 35.16
  Q 150.22 27.38 158.19 23.19
  Q 159.95 22.26 163.09 19.97
  Q 165.44 18.26 167.90 17.30
  Q 169.62 16.63 171.35 15.97
  Q 173.09 15.30 174.88 15.04
  Q 190.85 12.77 205.50 13.75
  Q 206.23 13.80 206.29 13.25
  Z"
/>
<path fill="#b4b4b1" d="
  M 293.54 13.50
  Q 293.84 15.66 293.21 17.75
  Q 286.68 15.61 283.78 19.92
  Q 282.29 22.13 282.15 27.40
  Q 281.71 43.91 281.10 60.41
  Q 280.92 65.47 280.74 66.07
  Q 279.77 69.29 275.48 69.75
  Q 273.48 69.97 273.21 67.98
  Q 272.96 66.14 271.41 65.05
  Q 270.31 64.28 270.27 64.25
  Q 267.94 62.28 266.43 59.68
  Q 264.00 55.47 263.44 54.76
  Q 260.01 50.41 253.81 43.44
  Q 253.36 42.93 252.02 40.71
  Q 251.17 39.30 249.99 38.22
  Q 244.00 32.72 243.06 31.19
  Q 240.80 27.48 236.41 25.30
  Q 234.98 24.59 233.97 23.35
  Q 231.80 20.70 228.81 20.35
  Q 225.75 20.00 223.51 21.80
  Q 221.29 23.57 221.40 26.88
  Q 221.47 29.06 221.47 29.13
  Q 221.42 32.45 221.64 35.77
  Q 221.89 39.36 221.72 42.37
  Q 221.24 51.43 221.76 60.49
  Q 221.93 63.40 221.71 67.50
  Q 221.52 71.02 221.75 74.54
  L 214.00 74.16
  C 213.19 74.12 212.56 73.47 212.55 72.67
  L 212.29 21.25
  Q 214.52 20.03 216.43 18.37
  Q 218.45 16.61 220.19 16.07
  Q 226.86 14.01 232.44 15.56
  Q 234.44 16.12 236.19 19.31
  Q 237.45 21.62 242.12 25.67
  C 242.38 25.90 242.71 25.99 243.00 25.92
  Q 243.87 25.71 244.50 24.96
  L 274.00 64.39
  Q 275.49 66.38 275.50 63.89
  Q 275.57 48.42 275.98 33.32
  Q 275.98 33.19 276.25 31.73
  Q 276.44 30.73 275.78 29.92
  C 275.53 29.61 275.40 29.30 275.41 29.06
  L 275.96 18.25
  Q 276.04 19.37 276.93 19.46
  C 277.21 19.48 277.51 19.32 277.72 19.02
  Q 283.38 10.82 292.81 14.19
  Q 293.70 14.50 293.54 13.50
  Z"
/>
<path fill="#b4b4b1" d="
  M 459.71 14.50
  Q 459.96 16.03 459.05 18.92
  C 458.78 19.81 457.96 20.43 457.02 20.44
  Q 447.84 20.55 438.75 20.50
  Q 434.55 20.48 431.75 21.04
  Q 427.33 19.88 424.80 22.40
  Q 423.03 24.17 422.78 28.23
  Q 422.51 32.62 422.91 37.01
  Q 423.21 40.36 422.50 45.75
  Q 421.99 49.68 422.44 54.61
  Q 422.93 59.99 422.96 63.43
  Q 422.99 68.64 423.44 73.83
  Q 423.93 79.37 423.80 84.20
  Q 423.62 90.86 423.94 95.81
  Q 424.00 96.80 423.50 97.21
  L 416.11 96.68
  C 415.35 96.63 414.76 95.94 414.75 95.10
  Q 414.53 63.24 414.27 31.93
  Q 414.26 30.96 413.61 27.68
  Q 413.17 25.51 413.71 23.25
  Q 413.53 24.18 413.96 24.11
  Q 414.19 24.08 414.44 23.76
  Q 416.75 20.74 418.81 17.56
  Q 420.11 15.57 422.54 14.74
  Q 423.97 14.25 427.02 14.24
  Q 443.37 14.19 459.71 14.50
  Z"
/>
<path fill="#a8a7a4" d="
  M 406.46 22.25
  Q 407.08 24.35 407.74 26.43
  Q 407.77 26.54 408.50 27.93
  Q 409.01 28.90 408.32 29.87
  C 408.11 30.16 408.00 30.47 408.00 30.76
  Q 407.95 37.01 406.04 42.86
  Q 404.68 47.05 402.50 49.58
  Q 399.97 52.52 396.28 54.24
  Q 393.63 55.48 389.98 57.25
  C 389.61 57.43 389.45 57.87 389.64 58.24
  L 409.32 96.56
  C 409.59 97.09 409.23 97.71 408.65 97.74
  L 393.34 98.43
  C 392.55 98.47 391.80 98.03 391.41 97.30
  Q 384.40 84.32 377.69 71.56
  Q 374.55 65.61 371.98 61.97
  C 371.78 61.69 371.50 61.51 371.20 61.48
  L 361.22 60.33
  C 360.70 60.27 360.24 60.71 360.25 61.26
  L 360.69 96.29
  C 360.70 96.96 360.17 97.51 359.52 97.50
  L 343.83 97.19
  C 343.27 97.18 342.80 96.71 342.74 96.09
  L 341.96 87.75
  Q 342.80 87.06 343.50 88.51
  Q 343.99 89.54 344.51 88.53
  Q 346.12 85.41 346.11 82.19
  Q 346.11 78.87 346.11 78.80
  Q 346.73 69.31 347.24 59.81
  Q 347.68 51.69 356.00 51.75
  Q 370.29 51.86 374.00 52.07
  Q 379.91 52.41 385.40 50.68
  Q 389.55 49.37 391.14 46.94
  Q 393.25 43.75 391.69 39.31
  C 391.40 38.48 390.45 38.14 389.94 38.69
  Q 389.56 39.09 389.00 38.71
  Q 390.48 32.10 389.50 28.25
  Q 388.08 22.67 382.55 21.00
  Q 379.11 19.96 375.57 20.14
  Q 372.98 20.27 372.93 20.27
  Q 360.08 20.52 347.25 21.29
  Q 348.33 15.73 354.00 15.50
  Q 366.44 15.00 387.25 16.25
  Q 393.95 16.65 398.73 19.06
  Q 399.09 19.23 401.53 21.27
  Q 403.56 22.98 406.46 22.25
  Z"
/>
<path fill="#a4a4a1" d="
  M 293.21 17.75
  Q 293.91 53.97 293.75 67.50
  Q 293.60 80.35 294.17 96.00
  C 294.20 96.83 293.62 97.55 292.80 97.71
  Q 286.67 98.85 279.75 97.75
  Q 275.72 97.11 273.89 94.85
  Q 270.41 90.57 267.18 86.11
  Q 248.91 60.92 230.18 36.05
  Q 228.75 34.15 228.75 36.53
  L 228.75 73.10
  C 228.75 73.83 228.17 74.42 227.45 74.44
  L 221.75 74.54
  Q 221.52 71.02 221.71 67.50
  Q 221.93 63.40 221.76 60.49
  Q 221.24 51.43 221.72 42.37
  Q 221.89 39.36 221.64 35.77
  Q 221.42 32.45 221.47 29.13
  Q 221.47 29.06 221.40 26.88
  Q 221.29 23.57 223.51 21.80
  Q 225.75 20.00 228.81 20.35
  Q 231.80 20.70 233.97 23.35
  Q 234.98 24.59 236.41 25.30
  Q 240.80 27.48 243.06 31.19
  Q 244.00 32.72 249.99 38.22
  Q 251.17 39.30 252.02 40.71
  Q 253.36 42.93 253.81 43.44
  Q 260.01 50.41 263.44 54.76
  Q 264.00 55.47 266.43 59.68
  Q 267.94 62.28 270.27 64.25
  Q 270.31 64.28 271.41 65.05
  Q 272.96 66.14 273.21 67.98
  Q 273.48 69.97 275.48 69.75
  Q 279.77 69.29 280.74 66.07
  Q 280.92 65.47 281.10 60.41
  Q 281.71 43.91 282.15 27.40
  Q 282.29 22.13 283.78 19.92
  Q 286.68 15.61 293.21 17.75
  Z"
/>
<path fill="#a4a4a1" d="
  M 580.79 21.25
  L 581.48 71.74
  C 581.49 72.57 580.83 73.25 580.01 73.25
  L 565.10 73.25
  C 564.63 73.25 564.24 72.89 564.22 72.44
  L 563.25 48.74
  Q 563.14 46.11 561.95 48.42
  L 538.82 93.04
  C 538.47 93.71 537.84 94.14 537.15 94.17
  L 523.26 94.75
  C 522.57 94.78 521.89 94.38 521.52 93.71
  Q 507.63 68.88 494.03 44.08
  Q 493.75 43.57 493.46 43.43
  Q 492.98 43.19 492.67 43.67
  Q 492.50 43.92 492.50 44.36
  Q 492.32 70.66 491.70 96.94
  C 491.69 97.23 491.48 97.47 491.20 97.52
  Q 485.25 98.47 479.25 97.71
  Q 479.80 97.64 480.18 97.34
  Q 480.49 97.09 480.55 96.53
  Q 481.90 83.71 481.50 78.00
  Q 480.93 69.83 480.49 61.66
  Q 480.29 57.86 480.69 52.35
  Q 481.04 47.68 480.99 43.00
  Q 480.88 31.95 482.25 20.98
  Q 482.62 18.02 485.56 17.47
  Q 488.23 16.97 491.20 16.98
  Q 493.45 16.99 495.32 18.27
  Q 499.68 21.28 503.06 25.43
  C 503.48 25.94 503.72 26.58 503.75 27.24
  Q 504.01 32.40 506.19 37.06
  Q 507.62 40.12 512.56 47.72
  Q 513.69 49.45 514.52 52.26
  Q 515.41 55.28 517.19 58.56
  Q 518.94 61.79 520.57 67.30
  Q 523.41 76.83 531.17 82.89
  C 531.43 83.09 531.74 83.21 532.05 83.23
  Q 538.73 83.67 541.81 77.06
  Q 549.77 60.02 566.25 28.64
  Q 568.56 24.25 570.66 23.05
  Q 573.97 21.15 578.50 22.75
  Q 580.59 23.49 580.79 21.25
  Z"
/>
<path fill="#a6a5a2" d="
  M 328.00 17.46
  L 327.56 82.44
  C 327.56 82.76 327.74 83.04 328.01 83.17
  Q 329.38 83.82 331.00 83.54
  Q 332.48 89.41 338.00 90.75
  Q 339.66 91.15 339.39 89.94
  C 339.33 89.66 339.43 89.38 339.64 89.25
  L 340.04 89.00
  Q 340.62 89.23 340.42 89.71
  Q 340.22 90.21 340.20 90.34
  Q 339.84 92.78 340.32 95.24
  Q 340.98 98.69 337.94 98.36
  Q 336.65 98.22 336.55 98.22
  Q 319.50 97.49 311.75 97.75
  Q 305.49 97.96 300.75 97.04
  L 306.51 97.18
  C 306.91 97.19 307.25 97.12 307.43 96.98
  L 315.94 90.41
  C 316.17 90.23 316.35 89.94 316.45 89.58
  Q 317.25 86.71 317.25 84.75
  Q 317.25 56.75 317.21 28.75
  Q 317.21 26.88 317.56 25.05
  Q 318.21 21.69 318.30 21.43
  Q 318.81 19.93 320.19 19.09
  Q 321.03 18.58 322.93 18.34
  Q 325.49 18.02 328.00 17.46
  Z"
/>
<path fill="#a6a5a2" d="
  M 116.71 18.00
  Q 117.10 19.88 116.01 21.30
  C 115.83 21.55 115.53 21.69 115.20 21.69
  Q 103.44 21.81 91.70 22.23
  Q 91.61 22.23 90.31 22.16
  Q 87.90 22.05 88.25 25.00
  Q 88.62 28.17 88.51 41.42
  Q 88.50 43.27 89.12 43.91
  Q 90.09 44.91 92.21 44.25
  Q 92.22 45.05 92.78 45.53
  C 93.04 45.76 93.20 46.04 93.23 46.31
  Q 93.66 50.72 96.48 54.06
  C 96.69 54.31 96.98 54.48 97.30 54.55
  Q 105.23 56.32 109.00 56.00
  Q 120.27 55.06 130.50 56.00
  Q 130.87 56.03 130.79 56.50
  Q 131.10 60.84 126.75 60.79
  Q 108.34 60.61 89.93 60.93
  C 89.65 60.94 89.41 61.15 89.38 61.43
  Q 88.31 70.93 89.17 80.46
  Q 89.19 80.60 89.14 82.04
  Q 89.09 83.79 91.25 82.96
  Q 92.01 83.49 91.51 83.85
  C 91.21 84.07 91.01 84.33 90.98 84.56
  Q 90.62 87.09 91.42 89.41
  Q 92.14 91.52 94.35 93.00
  Q 100.93 97.40 109.26 95.82
  Q 110.13 95.66 110.95 95.79
  Q 111.91 95.95 112.58 95.95
  Q 116.22 95.91 116.00 99.71
  Q 96.76 100.67 77.50 100.21
  Q 77.77 99.90 77.77 99.50
  Q 77.40 72.23 77.75 51.75
  Q 77.93 41.48 76.79 32.12
  Q 76.07 26.25 76.56 24.37
  Q 77.71 19.97 82.75 18.50
  Q 84.86 17.89 87.48 18.10
  Q 90.82 18.38 92.16 18.31
  Q 104.43 17.68 116.71 18.00
  Z"
/>
<path fill="#a6a5a2" d="
  M 431.75 21.04
  Q 430.60 32.01 432.00 42.96
  Q 431.52 43.56 432.03 44.03
  C 432.29 44.27 432.45 44.55 432.47 44.80
  Q 432.80 49.82 434.75 55.00
  Q 435.29 56.43 435.04 58.25
  Q 434.43 58.67 433.83 58.36
  Q 433.25 58.04 432.93 58.05
  Q 430.48 58.13 430.64 60.69
  Q 430.74 62.19 430.74 62.32
  Q 430.63 71.69 430.92 81.05
  C 430.93 81.39 431.15 81.67 431.42 81.66
  L 435.75 81.54
  L 436.15 82.40
  C 436.32 82.75 436.40 83.07 436.37 83.30
  Q 435.97 86.89 439.56 87.44
  Q 444.42 88.18 458.01 88.97
  C 458.19 88.98 458.49 89.13 458.84 89.37
  Q 459.19 89.63 459.71 89.50
  L 459.55 95.61
  Q 459.49 97.79 457.52 97.76
  L 423.50 97.21
  Q 424.00 96.80 423.94 95.81
  Q 423.62 90.86 423.80 84.20
  Q 423.93 79.37 423.44 73.83
  Q 422.99 68.64 422.96 63.43
  Q 422.93 59.99 422.44 54.61
  Q 421.99 49.68 422.50 45.75
  Q 423.21 40.36 422.91 37.01
  Q 422.51 32.62 422.78 28.23
  Q 423.03 24.17 424.80 22.40
  Q 427.33 19.88 431.75 21.04
  Z"
/>
<path fill="#c4c3bf" d="
  M 341.96 87.75
  Q 341.34 86.73 342.24 86.12
  C 342.54 85.91 342.72 85.56 342.73 85.20
  L 343.26 45.07
  C 343.27 44.35 343.83 43.76 344.55 43.72
  Q 358.61 42.92 373.25 43.24
  Q 379.12 43.36 384.00 42.00
  Q 386.81 41.21 389.00 38.71
  Q 389.56 39.09 389.94 38.69
  C 390.45 38.14 391.40 38.48 391.69 39.31
  Q 393.25 43.75 391.14 46.94
  Q 389.55 49.37 385.40 50.68
  Q 379.91 52.41 374.00 52.07
  Q 370.29 51.86 356.00 51.75
  Q 347.68 51.69 347.24 59.81
  Q 346.73 69.31 346.11 78.80
  Q 346.11 78.87 346.11 82.19
  Q 346.12 85.41 344.51 88.53
  Q 343.99 89.54 343.50 88.51
  Q 342.80 87.06 341.96 87.75
  Z"
/>
<path fill="#c0c1bb" d="
  M 45.79 50.75
  Q 43.62 51.24 42.75 51.25
  Q 33.88 51.37 33.81 60.25
  Q 33.64 79.53 33.94 98.81
  Q 33.94 99.12 34.50 99.71
  L 27.76 99.46
  C 27.48 99.45 27.25 99.18 27.25 98.86
  L 27.25 41.63
  C 27.25 40.90 27.83 40.32 28.55 40.31
  L 44.60 40.25
  C 45.20 40.25 45.68 40.74 45.69 41.34
  L 45.79 50.75
  Z"
/>
<path fill="#babbb5" d="
  M 432.00 42.96
  Q 462.40 43.81 468.25 43.25
  Q 471.96 42.89 471.85 45.88
  Q 471.79 47.55 471.79 47.62
  Q 471.97 52.21 471.39 55.73
  Q 471.05 57.78 468.97 57.76
  Q 452.53 57.63 437.31 57.94
  Q 435.56 57.97 435.04 58.25
  Q 435.29 56.43 434.75 55.00
  Q 432.80 49.82 432.47 44.80
  C 432.45 44.55 432.29 44.27 432.03 44.03
  Q 431.52 43.56 432.00 42.96
  Z"
/>
<path fill="#b4b4b1" d="
  M 95.25 44.29
  Q 94.61 46.59 95.94 48.31
  Q 97.56 50.43 100.07 51.50
  Q 101.79 52.24 105.05 52.35
  Q 116.90 52.78 128.75 52.27
  C 129.04 52.26 129.33 52.11 129.56 51.86
  Q 130.66 50.67 131.71 52.00
  Q 132.19 54.50 130.79 56.50
  Q 130.87 56.03 130.50 56.00
  Q 120.27 55.06 109.00 56.00
  Q 105.23 56.32 97.30 54.55
  C 96.98 54.48 96.69 54.31 96.48 54.06
  Q 93.66 50.72 93.23 46.31
  C 93.20 46.04 93.04 45.76 92.78 45.53
  Q 92.22 45.05 92.21 44.25
  Q 93.74 42.93 95.25 44.29
  Z"
/>
<path fill="#c4c3bf" d="
  M 95.25 44.29
  L 129.14 44.25
  Q 131.84 44.25 131.80 46.82
  L 131.71 52.00
  Q 130.66 50.67 129.56 51.86
  C 129.33 52.11 129.04 52.26 128.75 52.27
  Q 116.90 52.78 105.05 52.35
  Q 101.79 52.24 100.07 51.50
  Q 97.56 50.43 95.94 48.31
  Q 94.61 46.59 95.25 44.29
  Z"
/>
<path fill="#a6a5a2" d="
  M 45.79 50.75
  Q 45.60 58.51 45.87 66.26
  Q 46.15 74.32 45.91 81.74
  Q 45.64 89.86 45.76 98.42
  C 45.77 98.95 45.38 99.38 44.88 99.40
  L 34.50 99.71
  Q 33.94 99.12 33.94 98.81
  Q 33.64 79.53 33.81 60.25
  Q 33.88 51.37 42.75 51.25
  Q 43.62 51.24 45.79 50.75
  Z"
/>
<path fill="#c0c1bb" d="
  M 154.75 69.21
  Q 165.59 80.38 180.64 81.47
  Q 181.11 81.50 192.87 81.50
  Q 198.86 81.50 205.12 81.50
  C 205.71 81.50 206.20 81.98 206.25 82.60
  L 206.79 89.25
  Q 205.77 90.74 204.41 90.11
  Q 202.64 89.30 202.42 89.26
  Q 200.24 88.86 198.00 89.05
  Q 194.23 89.36 190.48 89.12
  Q 186.00 88.84 183.00 88.55
  Q 175.36 87.81 170.06 84.44
  Q 165.26 81.38 160.53 78.20
  Q 157.04 75.85 154.62 72.40
  Q 153.46 70.74 154.75 69.21
  Z"
/>
<path fill="#c4c3bf" d="
  M 459.71 89.50
  Q 459.19 89.63 458.84 89.37
  C 458.49 89.13 458.19 88.98 458.01 88.97
  Q 444.42 88.18 439.56 87.44
  Q 435.97 86.89 436.37 83.30
  C 436.40 83.07 436.32 82.75 436.15 82.40
  L 435.75 81.54
  Q 446.37 82.02 457.41 81.48
  Q 459.35 81.38 459.44 83.40
  L 459.71 89.50
  Z"
/>
<path fill="#babbb5" d="
  M 116.00 99.71
  Q 116.22 95.91 112.58 95.95
  Q 111.91 95.95 110.95 95.79
  Q 110.13 95.66 109.26 95.82
  Q 100.93 97.40 94.35 93.00
  Q 92.14 91.52 91.42 89.41
  Q 90.62 87.09 90.98 84.56
  C 91.01 84.33 91.21 84.07 91.51 83.85
  Q 92.01 83.49 91.25 82.96
  Q 92.03 82.60 92.66 83.13
  C 92.94 83.37 93.24 83.50 93.50 83.50
  L 115.96 83.50
  Q 118.06 83.50 118.03 85.49
  L 117.79 99.00
  C 117.78 99.33 117.58 99.61 117.29 99.71
  Q 116.68 99.90 116.00 99.71
  Z"
/>
<path fill="#babbb5" d="
  M 331.00 83.54
  L 337.72 83.74
  Q 339.56 83.80 339.73 85.70
  L 340.04 89.00
  L 339.64 89.25
  C 339.43 89.38 339.33 89.66 339.39 89.94
  Q 339.66 91.15 338.00 90.75
  Q 332.48 89.41 331.00 83.54
  Z"
/>
</svg>
