<svg xmlns="http://www.w3.org/2000/svg" viewBox="0 0 1096 228" xmlns:v="https://vecta.io/nano"><path d="M638.91 35.76a2.4 2.4 0 0 1 1.57-1.44q2.84-.79 5.55-.54 2.85.27 2.97.27 33.74 1.2 67.5 1.7 6.06.09 14.75 3.25 12.1 4.4 18.44 13.56.82 1.19 3.87 6.64 2.3 4.09 3.37 6.9 3.46 9.15 3.31 18.81-.12 7.96-1.79 16.14-1.67 8.22-5.76 15.39-2.81 4.91-8.26 7.94-5.31 2.95-17.24 8.06-2.8 1.19-1.38 4.5 1.62 3.76 8.25 16 13.8 25.5 26.4 51.61 2.21 4.57-3.21 4.88-9.62.53-19.25.79-1.86.05-3.66-.31-1.84-.38-3.12-1.7-2.02-2.09-3.78-5.4-20.17-37.71-31.75-61.25-.99-2.01-3.88-2.08-1.53-.03-1.63-.04-8.01-.6-16.67-1.52-2.41-.25-3 2.1-.53 2.16-.57 4.98-.02 1.63.41 4.98.62 4.84.4 7.52-.33 3.93-.14 6.33.18 2.26.18 2.36.24 6.38.37 12.76.01.15.33 9.08.28 7.77-.34 15.53-.18 2.2-1.08 3.09-1.2 1.19-3.38 1.29-11.59.51-24.39.29-2.01-.04-2.27-2.03-.67-4.94-.41-9.79.42-8.3.42-8.33.34-33.66.11-67.33-.03-4.99.58-9.39.31-2.2 2.53-2.33 2.52-.15 4.84-.33 2.51-.2 4.82-.14 22.16.56 44.33.69 4.27.02 7.9-.74 6-1.27 7.31-1.48 5.17-.85 8.73-2.59 3.78-1.86 5.28-6.95 1.64-5.59 1.78-12.24.08-3.96-.96-7.47-1.02-3.44-3.65-6.4-7.36-8.27-18.64-7.88-14.75.51-29.5.8-16.28.33-22.94 1.51-5.36.96-10.5.94-2.91-.01-3.74-2.8-.76-2.54-.74-5.2.05-9 .34-18 .09-2.63.99-4.99zm-58.84 30.43q.02-13.13-.06-26.26 0-.12-.12-1.85-.25-3.63 3.27-3.49 2.59.1 2.68.09 11.59-.53 23.24.07c.94.05 1.68.83 1.67 1.78q-.24 37.6-.27 75.47-.02 35.13-.98 70.26c-.03.94.71 1.72 1.65 1.74q3.33.09 6.21-.8 1.74-.53 3.94-.35l10.44.88c.89.07 1.56.79 1.54 1.63q-.15 4.88.05 9.25 0 .06.6 5.76.38 3.58-.12 6.8-.4 2.58-3.01 2.58-31.64-.04-63.22-1.21-.07 0-2.16.07-2.69.1-4.52-1.8c-.21-.22-.35-.53-.4-.87q-1.39-10.33.23-20.64c.05-.29.28-.53.57-.59q7.32-1.49 10.95-1.71 1.97-.12 5.2 1.13 3.33 1.29 3.16-2.27-.05-1.01-.05-1.11-.56-57.28-.49-114.56z" fill="#383735"/><path d="M917.92 104.68q-.3.81-.29 2.07.09 10.66.29 21.33.04 1.93-.35 7.81-.26 3.92.18 7.86.25 2.22-.16 7.18-.27 3.34-.07 7.14.22 3.86.06 7.71-.18 4.4.05 9.44.16 3.6-.06 7.2-.24 3.86-.07 7.16.48 9.23-.78 17.67-.34 2.29-2.64 2.06-6.08-.61-11.57-.01-4.53.49-11.07-.74-2.99-.56-3.35-3.07-.42-2.99-.28-5.98.21-4.46.22-4.51.2-19.67-.16-39.34-.03-1.56.22-6.18.16-3.11-.13-6.23-.42-4.5.05-9 .31-2.87.12-5.72-.28-4.14-.24-5.69.43-18.42.1-36.84-.18-9.69-.02-20.01.21-14.07-.22-24.24-.14-3.31 1.67-5.02 1.26-1.18 4.49-1.51 5.41-.55 10.84-.38 2.56.07 6.47-.24 3.44-.27 6.53.15 2.77.38 4.37 2.92 2.41 3.81 4.27 7.91 4.66 10.31 10.01 20.26 5.55 10.32 8.21 15.63 3.95 7.9 8.02 15.74 12.99 25.04 25.6 50.27 4.06 8.11 8.59 15.97 1.35 2.34 2.52-.09 9.4-19.49 19.36-39.73 26.6-54.03 38.74-80.69 2.17-4.78 5.79-7.01 1.94-1.19 5.31-1.12 3.38.07 6.77.13.05 0 6.39-.12 4.78-.09 9.5.89c.3.06.55.28.65.57q1.7 4.98.88 10.22-.39 2.49-.24 4.99.28 4.43.28 4.54.19 17.86.44 35.72 0 .07-.22 6-.08 2.26.17 4.51.32 2.81.28 4.49-.09 3.25-.14 6.49-.04 2.15.22 6.51.2 3.38.07 6.77-.19 4.84.02 9.46.22 4.75-.11 10.02-.17 2.64.44 6.01.94 5.27-.88 10.3a1.87 1.87 0 0 1-1.33 1.2q-2.92.71-5.48.92-1.33.11-5.49-.26-5.13-.45-10.26.34-3.03.47-6.02-.04-.16-.03-1.61-.17-2.2-.2-1.98-2.6.12-1.31.13-1.41.53-22.51-.49-45-.04-.67-.33-1-.63-.72-1.35.49-3.05 5.09-8.16 15.66-2.11 4.36-5.46 10.16-3.48 6.06-5.55 10.1-12.15 23.79-23.99 47.74-.98 1.98-2.83 3.16-1.34.85-3.91 1.21-10.79 1.49-21.65.59-2.79-.23-4.14-1.39-1.7-1.47-2.41-4.01-.44-1.58-1.45-3.84-.73-1.63-1.97-3.58-6.52-10.2-8.02-13.39-3.32-7.1-11.31-21.19-8.74-15.42-16.99-31.09-5.49-10.42-11.83-20.36-.76-1.19-1.26.13zm-404.4 44.75q.93-8.31.59-17.25-.1-2.64.06-4.84.11-1.61.22-3.23.11-1.56-.03-3.22-.6-7.47-.11-10.64.62-4-.02-8-.55-3.38.02-6.75.52-3.09.29-7.68-.24-4.88-.14-7.66.55-14.65.45-29.32-.01-.06.4-7.03.2-3.61-.56-7.34c-.16-.8.44-1.54 1.24-1.54l29.08.06c.68 0 1.23.56 1.24 1.25q.18 20.88.47 41.76.75 54.62 1.25 109.25 0 .45.18 6.99.09 3.48-.03 6.97-.17 4.74-.25 5.07-.78 3.02-4.87 3.22-10.9.54-20.25.33-5.17-.12-5.49-.19-2.67-.64-4.7-3.45-18.28-25.3-36.86-50.39-9.09-12.26-17.83-24.77-6.49-9.3-11.69-16.21-8.76-11.66-17.6-23.39-1.73-2.3-2.08.55-.61 4.95-.57 9.91.05 5.17.05 5.22-.25 27.75.02 34.89.44 11.41-.1 19.11-.17 2.51-1.1 3.52-1.4 1.52-4.05 1.1-7.09-1.13-14.25-.5-2.29.2-6.25-.98-3.03-.9-3.12-3.75-.46-15-.15-30 .17-8.26-.1-16.51-.3-9.03-.24-16.49.07-10.75-.39-21.5-.08-1.78.11-6.17.12-2.94-.04-6.15-.33-6.33-.17-12.67.02-.86-.18-6-.12-3.16.53-6.01.56-2.43 2.58-3.21.8-.3 3.73-.66 2.2-.27 4.44-.11 5.74.39 11.5.45 5.4.06 9.54 2.73 2.57 1.66 6.5 6.98 15.55 21.1 31.1 42.21 3.47 4.71 12 15.99 10.48 13.83 20.42 28.06 6.6 9.45 13.88 18.38 1.13 1.39 1.33-.39z" fill="#41413f"/><path fill="#333331" d="M352.44 64.53q-13.95-.81-27.88.28-2.54.2-12.08 3.13-7.93 2.44-14.29 7.75-4.97 4.15-11.63 14.12-3.88 5.82-5.17 13.4-.71 4.16-1.02 14.12-.33 10.97.88 21.92.24 2.21 3.56 11.94 1.5 4.38 5.4 8.71 2.86 3.18 7.74 6.47 7.64 5.16 15.11 8.32 8.36 3.53 18.7 3.86 23.24.75 46.49.39 3.15-.05 4.83 1.96 1.12 1.33 1.49 4.49.74 6.27.42 12.57-.29 5.72-.52 6.57-1.12 4.09-6.28 4.16-21.36.28-51.31-1.47-3.05-.18-7.2-.93-2.38-.43-4.79-.75-3.3-.44-4.77-.73-21.65-4.33-37.72-18.56-7.7-6.83-12.54-15.43-5.36-9.52-7.79-20.33-.21-.92-.9-5.51-.28-1.85-.71-3.67-.49-2.09-.6-3.68-.64-8.61-.7-17.25-.06-9.6 1.42-17.16 2.83-14.44 9.41-27.76 7.77-15.68 22.68-24.81 10.31-6.31 21.68-10.02 8.02-2.61 19.58-3.75 18.58-1.84 37.28-1.7.54.01 9.57-.19 4.88-.1 9.58.46 2.77.34 3.55 3.02.8 2.75.57 5.53-.4 4.84-.26 9.68.28 9.36.28 9.66 0 14.95-.01 29.91 0 1.97-.23 3.92-.35 3.06-.57 3.63-.78 2-3.5 2.21-7.94.63-20.75.3-4.98-.13-5.84-3.82-.09-.36-.12-5.99-.06-9.97-.04-19.94 0-5.85-.42-8.51a.61.61 0 0 0-.58-.52z"/><path fill="#31312f" d="M855.81 62.33q-.18 1.89-2.08 1.93-22.98.42-46.48.3-3.4-.01-3.57 3.04-.09 1.55-.1 1.66-.46 3.75-.34 7.5.2 6.36.18 7.49-.21 11.72.07 23.29c.03.96.82 1.73 1.78 1.72q33.92-.26 66.88-.02.99.01 2.19.21 1.08.18 2.17.3 1.88.2 2 2.08.48 7.57-.45 15.16-.42 3.38-.5 3.62-.68 1.98-3.13 2.54-4.53 1.03-9.18.95-30.97-.57-61.94-.29c-.3 0-.57.2-.63.49q-.31 1.37-.43 4.45-.81 20.62 0 41.24a.53.53 0 0 0 .49.51q7 .43 14.01 0 6.6-.4 34.5-1 5.61-.12 5.39 4.75-.11 2.38-.11 2.51.23 10.77-1.01 21.34c-.12 1-1 1.73-2.01 1.65q-10.87-.84-21.76-1.07-22-.46-44-.42-5.77.01-11.51-.76a1.19 1.19 0 0 1-1.02-1.07q-.31-3.74-.19-7.63.18-5.63.13-7.61-.57-23.85-1.16-47.69-.25-10.03-.34-19.99-.4-42.41-.85-85.28-.03-2.5 2.45-2.77 5.94-.65 12.35-.51 11.72.27 11.8.27 26.58-.1 53.15.22 4.29.05 4.29 4.06.02 11.43-1.04 22.83z"/><path fill="#333331" d="M166.08 110.51q3.34 1.04 7.92.86 32.74-1.26 65.92-1.88 3.43-.06 3.68 3.36.26 3.49-.01 7.62-.22 3.43-.2 7.59.02 4.44-.62 8.79-.35 2.4-2.76 2.65-3.35.35-6.69.12-4.21-.29-6.66-.21-4.56.16-9.11-.08-6.55-.34-9.11-.35-21.18-.13-41.99-.72c-.65-.02-1.19.5-1.19 1.15l.24 42.65c0 .66.55 1.19 1.22 1.19l52.46-.07c.63 0 1.14.53 1.11 1.16l-1.03 25.69q-.07 1.85-1.85 2.42-2.98.96-5.66.3-2.69-.67-9.06-.22-5.26.37-9.02.28-14.87-.35-26.42.19-2.66.12-4.51.1-3.12-.03-4.49.06-12.55.85-24.41.37-2.51-.1-2.39-2.61.33-6.5.07-12.51-.2-4.64-.09-8.83.1-3.84.07-8.83-.14-20.08-.03-59.75.14-51.87-.22-61.5-.36-9.62.02-19.72.08-2.27 2.35-2.28 40.02-.22 80.92-2.05 2.57-.11 2.71 2.45.63 11.79.1 24.52-.12 2.81-1.07 3.9-1.52 1.73-4.59.99-1.26-.3-6.29-.32-.93 0-6.29.23-2.8.12-5.59-.02-4.66-.23-5.56-.24-14.12-.19-16.96.29-2.73.46-4.4.83-3.2.72-3.11 3.96l1.03 36.42c.02.94.65 1.76 1.56 2.05z"/><path fill="#1a1a18" d="M48.56 39.44q23.06.31 55.19-.14.01 0 6.49-.24 3.5-.13 6.51.11 2.09.17 2.76 2.15 3.11 9.13.41 16.79-.75 2.15-2.26 3.06-1.71 1.03-3.91 1.03-46.99-.1-93.97.29-.09 0-2.55.13-7.2.4-4.98-7.62.46-1.67.29-5.79 0-.09-.59-3.73-.49-2.99 1.26-5.57c.17-.26.46-.41.79-.42q14.94-.32 34.56-.05z"/><path fill="#343432" d="M51.03 140.25q.11-10.75.22-21.5.07-6.81.52-10.7.28-2.43 1.52-3.56 1.54-1.4 3.96-1.52 14.95-.73 23.75.03 1.84.16 2.98 1.79.76 1.09.8 3.12.45 26.29.12 52.58-.12 9.59-.05 20 .1 14.39-.1 28.78-.03 2.02-2.03 2.31-5.08.74-10.49.89-.99.03-7.95-.23-4.44-.16-7.97.32-4.16.57-4.92-2.31-.11-.41-.18-4.52-.52-32.74-.18-65.48z"/></svg>